<svg width="82" height="55" viewBox="0 0 82 55" fill="none" xmlns="http://www.w3.org/2000/svg">
<path d="M81.5354 31.717C74.9488 25.6841 55.6205 20.3071 31 47.0619C41.1981 38.6667 65.5825 23.8444 81.5354 31.717Z" fill="#D4AF37"/>
<path d="M76.0581 36.2812C72.3916 32.9229 61.6324 29.9298 47.9272 44.823C53.6041 40.1498 67.1778 31.8989 76.0581 36.2812Z" fill="#D4AF37"/>
<path d="M6.52122 27.3056H12.7905V31H1.73526V11.3524H6.52122V27.3056ZM22.1823 31.2239C20.6523 31.2239 19.2715 30.8974 18.0401 30.2443C16.8272 29.5913 15.8663 28.6583 15.1573 27.4455C14.4669 26.2327 14.1217 24.8146 14.1217 23.1913C14.1217 21.5867 14.4762 20.1779 15.1853 18.9651C15.8943 17.7337 16.8646 16.7914 18.096 16.1383C19.3275 15.4853 20.7083 15.1588 22.2383 15.1588C23.7683 15.1588 25.149 15.4853 26.3805 16.1383C27.612 16.7914 28.5822 17.7337 29.2913 18.9651C30.0003 20.1779 30.3548 21.5867 30.3548 23.1913C30.3548 24.796 29.991 26.214 29.2633 27.4455C28.5542 28.6583 27.5747 29.5913 26.3245 30.2443C25.0931 30.8974 23.7123 31.2239 22.1823 31.2239ZM22.1823 27.0817C23.0966 27.0817 23.8709 26.7458 24.5053 26.0741C25.1584 25.4024 25.4849 24.4415 25.4849 23.1913C25.4849 21.9412 25.1677 20.9803 24.5333 20.3086C23.9176 19.6368 23.1525 19.301 22.2383 19.301C21.3053 19.301 20.531 19.6368 19.9153 20.3086C19.2995 20.9616 18.9917 21.9225 18.9917 23.1913C18.9917 24.4415 19.2902 25.4024 19.8873 26.0741C20.503 26.7458 21.268 27.0817 22.1823 27.0817ZM38.8273 15.1588C39.9282 15.1588 40.8891 15.3827 41.7101 15.8305C42.5497 16.2783 43.1935 16.866 43.6413 17.5937V15.3827H48.4272V30.972C48.4272 32.4087 48.138 33.7055 47.5596 34.8624C46.9998 36.0379 46.1322 36.9708 44.9567 37.6612C43.7999 38.3515 42.3538 38.6967 40.6186 38.6967C38.3049 38.6967 36.4297 38.1463 34.993 37.0454C33.5562 35.9632 32.7353 34.4892 32.53 32.6233H37.26C37.4093 33.2204 37.7638 33.6869 38.3235 34.0227C38.8833 34.3772 39.5737 34.5545 40.3947 34.5545C41.3836 34.5545 42.1672 34.2653 42.7457 33.6869C43.3427 33.1271 43.6413 32.2221 43.6413 30.972V28.761C43.1748 29.4886 42.5311 30.0857 41.7101 30.5522C40.8891 31 39.9282 31.2239 38.8273 31.2239C37.5399 31.2239 36.3737 30.8974 35.3288 30.2443C34.2839 29.5726 33.4536 28.6303 32.8379 27.4175C32.2408 26.1861 31.9423 24.768 31.9423 23.1633C31.9423 21.5587 32.2408 20.15 32.8379 18.9371C33.4536 17.7243 34.2839 16.7914 35.3288 16.1383C36.3737 15.4853 37.5399 15.1588 38.8273 15.1588ZM43.6413 23.1913C43.6413 21.9972 43.3054 21.0549 42.6337 20.3645C41.9807 19.6742 41.1783 19.329 40.2267 19.329C39.2751 19.329 38.4635 19.6742 37.7918 20.3645C37.1387 21.0362 36.8122 21.9692 36.8122 23.1633C36.8122 24.3575 37.1387 25.3091 37.7918 26.0181C38.4635 26.7085 39.2751 27.0537 40.2267 27.0537C41.1783 27.0537 41.9807 26.7085 42.6337 26.0181C43.3054 25.3278 43.6413 24.3855 43.6413 23.1913ZM54.2966 13.7593C53.457 13.7593 52.7666 13.5168 52.2255 13.0317C51.7031 12.5279 51.4419 11.9121 51.4419 11.1844C51.4419 10.4381 51.7031 9.82236 52.2255 9.33723C52.7666 8.83345 53.457 8.58155 54.2966 8.58155C55.1176 8.58155 55.7893 8.83345 56.3118 9.33723C56.8529 9.82236 57.1234 10.4381 57.1234 11.1844C57.1234 11.9121 56.8529 12.5279 56.3118 13.0317C55.7893 13.5168 55.1176 13.7593 54.2966 13.7593ZM56.6756 15.3827V31H51.8897V15.3827H56.6756ZM69.6599 15.2147C71.4885 15.2147 72.9438 15.8118 74.026 17.006C75.1269 18.1815 75.6773 19.8048 75.6773 21.8759V31H70.9194V22.5196C70.9194 21.4747 70.6488 20.6631 70.1077 20.0847C69.5666 19.5062 68.8389 19.217 67.9246 19.217C67.0104 19.217 66.2827 19.5062 65.7416 20.0847C65.2005 20.6631 64.9299 21.4747 64.9299 22.5196V31H60.144V15.3827H64.9299V17.4538C65.415 16.7634 66.0681 16.2223 66.8891 15.8305C67.7101 15.42 68.6337 15.2147 69.6599 15.2147Z" fill="#0D2C54"/>
</svg>
