<svg width="119" height="57" viewBox="0 0 119 57" fill="none" xmlns="http://www.w3.org/2000/svg">
<path d="M83.5354 33.717C76.9488 27.6841 57.6205 22.3071 33 49.0619C43.1981 40.6667 67.5825 25.8444 83.5354 33.717Z" fill="#D4AF37"/>
<path d="M78.0582 38.2812C74.3917 34.9229 63.6324 31.9298 49.9273 46.823C55.6041 42.1498 69.1778 33.8989 78.0582 38.2812Z" fill="#D4AF37"/>
<path d="M11.755 31L7.66873 23.5832H6.52122V31H1.73526V11.3524H9.76784C11.3165 11.3524 12.6319 11.6229 13.7142 12.164C14.815 12.7051 15.636 13.4515 16.1771 14.4031C16.7182 15.336 16.9888 16.3809 16.9888 17.5377C16.9888 18.8438 16.6156 20.01 15.8692 21.0362C15.1415 22.0625 14.0593 22.7902 12.6226 23.2193L17.1567 31H11.755ZM6.52122 20.1966H9.48796C10.3649 20.1966 11.018 19.982 11.4471 19.5529C11.8949 19.1237 12.1188 18.5173 12.1188 17.7337C12.1188 16.9873 11.8949 16.3996 11.4471 15.9704C11.018 15.5413 10.3649 15.3267 9.48796 15.3267H6.52122V20.1966ZM34.7148 22.9394C34.7148 23.3872 34.6868 23.8537 34.6309 24.3388H23.7995C23.8741 25.3091 24.182 26.0554 24.7231 26.5779C25.2828 27.0817 25.9639 27.3336 26.7662 27.3336C27.9604 27.3336 28.7907 26.8298 29.2572 25.8222H34.351C34.0898 26.8484 33.614 27.772 32.9236 28.593C32.2519 29.414 31.4029 30.0577 30.3767 30.5242C29.3504 30.9907 28.2029 31.2239 26.9341 31.2239C25.4041 31.2239 24.042 30.8974 22.8479 30.2443C21.6537 29.5913 20.7208 28.6583 20.0491 27.4455C19.3774 26.2327 19.0415 24.8146 19.0415 23.1913C19.0415 21.568 19.368 20.15 20.0211 18.9371C20.6928 17.7243 21.6257 16.7914 22.8199 16.1383C24.0141 15.4853 25.3855 15.1588 26.9341 15.1588C28.4455 15.1588 29.7889 15.4759 30.9644 16.1103C32.1399 16.7447 33.0542 17.6497 33.7073 18.8252C34.379 20.0007 34.7148 21.3721 34.7148 22.9394ZM29.8169 21.68C29.8169 20.859 29.537 20.2059 28.9773 19.7208C28.4175 19.2357 27.7178 18.9931 26.8782 18.9931C26.0758 18.9931 25.3948 19.2264 24.835 19.6928C24.2939 20.1593 23.9581 20.8217 23.8275 21.68H29.8169ZM43.1731 15.1588C44.274 15.1588 45.2349 15.3827 46.0559 15.8305C46.8955 16.2783 47.5393 16.866 47.9871 17.5937V15.3827H52.773V30.972C52.773 32.4087 52.4838 33.7055 51.9054 34.8624C51.3456 36.0379 50.478 36.9708 49.3025 37.6612C48.1457 38.3515 46.6996 38.6967 44.9644 38.6967C42.6507 38.6967 40.7755 38.1463 39.3388 37.0454C37.902 35.9632 37.0811 34.4892 36.8758 32.6233H41.6058C41.7551 33.2204 42.1096 33.6869 42.6693 34.0227C43.2291 34.3772 43.9195 34.5545 44.7405 34.5545C45.7294 34.5545 46.513 34.2653 47.0915 33.6869C47.6885 33.1271 47.9871 32.2221 47.9871 30.972V28.761C47.5206 29.4886 46.8769 30.0857 46.0559 30.5522C45.2349 31 44.274 31.2239 43.1731 31.2239C41.8857 31.2239 40.7195 30.8974 39.6746 30.2443C38.6297 29.5726 37.7994 28.6303 37.1837 27.4175C36.5866 26.1861 36.2881 24.768 36.2881 23.1633C36.2881 21.5587 36.5866 20.15 37.1837 18.9371C37.7994 17.7243 38.6297 16.7914 39.6746 16.1383C40.7195 15.4853 41.8857 15.1588 43.1731 15.1588ZM47.9871 23.1913C47.9871 21.9972 47.6512 21.0549 46.9795 20.3645C46.3265 19.6742 45.5241 19.329 44.5725 19.329C43.6209 19.329 42.8093 19.6742 42.1376 20.3645C41.4845 21.0362 41.158 21.9692 41.158 23.1633C41.158 24.3575 41.4845 25.3091 42.1376 26.0181C42.8093 26.7085 43.6209 27.0537 44.5725 27.0537C45.5241 27.0537 46.3265 26.7085 46.9795 26.0181C47.6512 25.3278 47.9871 24.3855 47.9871 23.1913ZM58.6424 13.7593C57.8028 13.7593 57.1124 13.5168 56.5713 13.0317C56.0489 12.5279 55.7877 11.9121 55.7877 11.1844C55.7877 10.4381 56.0489 9.82236 56.5713 9.33723C57.1124 8.83345 57.8028 8.58155 58.6424 8.58155C59.4634 8.58155 60.1351 8.83345 60.6576 9.33723C61.1987 9.82236 61.4692 10.4381 61.4692 11.1844C61.4692 11.9121 61.1987 12.5279 60.6576 13.0317C60.1351 13.5168 59.4634 13.7593 58.6424 13.7593ZM61.0214 15.3827V31H56.2355V15.3827H61.0214ZM70.8431 31.2239C69.481 31.2239 68.2682 30.9907 67.2046 30.5242C66.1411 30.0577 65.3014 29.4233 64.6857 28.621C64.0699 27.8 63.7248 26.8858 63.6501 25.8782H68.3801C68.4361 26.4193 68.688 26.8578 69.1358 27.1936C69.5836 27.5295 70.134 27.6974 70.7871 27.6974C71.3842 27.6974 71.8413 27.5855 72.1585 27.3616C72.4944 27.119 72.6623 26.8111 72.6623 26.4379C72.6623 25.9901 72.429 25.6636 71.9626 25.4584C71.4961 25.2345 70.7404 24.9919 69.6955 24.7307C68.576 24.4694 67.6431 24.1989 66.8967 23.919C66.1504 23.6205 65.5067 23.1633 64.9656 22.5476C64.4245 21.9132 64.1539 21.0642 64.1539 20.0007C64.1539 19.1051 64.3965 18.2934 64.8816 17.5657C65.3854 16.8194 66.1131 16.2316 67.0647 15.8025C68.0349 15.3733 69.1824 15.1588 70.5072 15.1588C72.4664 15.1588 74.0057 15.6439 75.1252 16.6141C76.2634 17.5844 76.9165 18.8718 77.0844 20.4765H72.6623C72.5876 19.9354 72.3451 19.5062 71.9346 19.189C71.5428 18.8718 71.0203 18.7132 70.3673 18.7132C69.8075 18.7132 69.3783 18.8252 69.0798 19.0491C68.7813 19.2543 68.632 19.5435 68.632 19.9167C68.632 20.3645 68.8652 20.7004 69.3317 20.9243C69.8168 21.1482 70.5632 21.3721 71.5707 21.596C72.7276 21.8945 73.6698 22.1931 74.3975 22.4916C75.1252 22.7715 75.7596 23.238 76.3007 23.891C76.8605 24.5254 77.1497 25.3837 77.1684 26.4659C77.1684 27.3802 76.9071 28.2012 76.3847 28.9289C75.8809 29.6379 75.1439 30.1977 74.1736 30.6082C73.222 31.0187 72.1118 31.2239 70.8431 31.2239ZM88.8007 26.9417V31H86.3657C84.6305 31 83.2777 30.5802 82.3074 29.7405C81.3372 28.8822 80.8521 27.4922 80.8521 25.5703V19.357H78.9489V15.3827H80.8521V11.5763H85.638V15.3827H88.7727V19.357H85.638V25.6263C85.638 26.0928 85.75 26.4286 85.9739 26.6339C86.1978 26.8391 86.571 26.9417 87.0934 26.9417H88.8007ZM106.188 22.9394C106.188 23.3872 106.16 23.8537 106.104 24.3388H95.2729C95.3476 25.3091 95.6554 26.0554 96.1965 26.5779C96.7563 27.0817 97.4373 27.3336 98.2397 27.3336C99.4338 27.3336 100.264 26.8298 100.731 25.8222H105.824C105.563 26.8484 105.087 27.772 104.397 28.593C103.725 29.414 102.876 30.0577 101.85 30.5242C100.824 30.9907 99.6764 31.2239 98.4076 31.2239C96.8776 31.2239 95.5155 30.8974 94.3213 30.2443C93.1272 29.5913 92.1942 28.6583 91.5225 27.4455C90.8508 26.2327 90.515 24.8146 90.515 23.1913C90.515 21.568 90.8415 20.15 91.4945 18.9371C92.1662 17.7243 93.0992 16.7914 94.2933 16.1383C95.4875 15.4853 96.8589 15.1588 98.4076 15.1588C99.9189 15.1588 101.262 15.4759 102.438 16.1103C103.613 16.7447 104.528 17.6497 105.181 18.8252C105.852 20.0007 106.188 21.3721 106.188 22.9394ZM101.29 21.68C101.29 20.859 101.01 20.2059 100.451 19.7208C99.891 19.2357 99.1913 18.9931 98.3516 18.9931C97.5493 18.9931 96.8682 19.2264 96.3085 19.6928C95.7674 20.1593 95.4315 20.8217 95.3009 21.68H101.29ZM113.499 17.9855C114.059 17.1272 114.759 16.4555 115.598 15.9704C116.438 15.4666 117.371 15.2147 118.397 15.2147V20.2806H117.082C115.887 20.2806 114.992 20.5418 114.395 21.0642C113.798 21.568 113.499 22.4636 113.499 23.7511V31H108.713V15.3827H113.499V17.9855Z" fill="#0D2C54"/>
</svg>
